<?xml version="1.0" encoding="UTF-8"?>
<svg version="1.1" xmlns="http://www.w3.org/2000/svg" width="512" height="512">
<path d="M0 0 C28.60400507 25.93677776 47.84800994 63.93241803 50.02709961 102.68554688 C52.03639868 147.27092094 38.57985012 187.80897995 8.52709961 220.93554688 C0.46256926 229.60309814 -8.17083094 236.6354684 -17.85400391 243.38256836 C-32.72903277 253.76733603 -38.90943456 263.02688229 -45.97290039 280.68554688 C-84.91290039 280.68554688 -123.85290039 280.68554688 -163.97290039 280.68554688 C-165.95290039 275.73554688 -167.93290039 270.78554688 -169.97290039 265.68554688 C-176.1936252 255.99753282 -183.02176734 249.1692976 -192.66040039 242.93554688 C-200.00767652 238.16873171 -206.4894733 232.54681635 -212.97290039 226.68554688 C-213.72442383 226.0075 -214.47594727 225.32945312 -215.25024414 224.63085938 C-243.18089076 198.01392416 -258.76345835 158.91066083 -260.25415039 120.76757812 C-261.16425017 81.53848569 -249.14911393 43.32561447 -222.97290039 13.68554688 C-221.71026367 12.22375 -221.71026367 12.22375 -220.42211914 10.73242188 C-195.20862443 -17.99461788 -157.52808287 -37.38123327 -119.26538086 -40.18554688 C-74.47646251 -42.70402918 -33.66015492 -29.81455274 0 0 Z M-163.97290039 4.68554688 C-164.44469727 5.38808594 -164.91649414 6.090625 -165.40258789 6.81445312 C-167.50981786 9.32530675 -168.94923106 9.32321465 -172.16040039 9.68554688 C-182.28484368 11.27082155 -187.87372313 15.42712066 -193.97290039 23.68554688 C-196.77708973 28.23414831 -197.2989266 32.36045212 -196.97290039 37.68554688 C-197.60196289 37.8325 -198.23102539 37.97945312 -198.87915039 38.13085938 C-208.32824123 40.60697655 -215.43033534 45.57728406 -220.97290039 53.68554688 C-226.62914485 64.18483771 -227.35022836 74.28706499 -223.97290039 85.68554688 C-224.55297852 86.13542969 -225.13305664 86.5853125 -225.73071289 87.04882812 C-232.59928457 92.7046322 -238.3541745 99.66941775 -239.97290039 108.68554688 C-240.96802763 119.81139567 -238.50848029 128.1934145 -231.56665039 136.92382812 C-229.23770281 139.49822851 -226.73274968 141.58280456 -223.97290039 143.68554688 C-224.30290039 144.79929687 -224.63290039 145.91304687 -224.97290039 147.06054688 C-227.28340605 156.50203761 -226.26868327 165.50345716 -221.68383789 174.10351562 C-216.29824031 182.70031176 -208.93737881 188.94442727 -198.97290039 191.43554688 C-198.31290039 191.51804687 -197.65290039 191.60054687 -196.97290039 191.68554688 C-197.12758789 193.10867188 -197.12758789 193.10867188 -197.28540039 194.56054688 C-197.24781478 200.74964469 -194.16370392 206.13041903 -190.21118164 210.74023438 C-184.49811588 216.14041418 -177.90734935 219.2413349 -170.09790039 220.12304688 C-165.97119364 220.86585409 -165.51425375 222.41809255 -162.97290039 225.68554688 C-153.66479365 232.11183911 -146.14143601 233.48903865 -134.97290039 232.68554688 C-125.82974116 230.49541061 -118.86685467 223.74411051 -113.98071289 215.97070312 C-111.39005972 210.09654768 -110.67675757 204.2406327 -110.71220398 197.88137817 C-110.70837843 197.1383919 -110.70455289 196.39540563 -110.70061141 195.62990463 C-110.6903676 193.16286384 -110.694257 190.69605956 -110.69824219 188.22900391 C-110.69389093 186.45096625 -110.6887064 184.67293048 -110.68275452 182.89489746 C-110.66939765 178.08078246 -110.66878217 173.26674613 -110.67131782 168.45261621 C-110.67238981 164.42691923 -110.66749832 160.40123802 -110.6627124 156.37554443 C-110.6516286 146.87453708 -110.65117342 137.37356927 -110.65722656 127.87255859 C-110.66326572 118.0863891 -110.65095419 108.30036341 -110.62965649 98.51421845 C-110.61201648 90.09782533 -110.60604293 81.68147789 -110.60929424 73.26506698 C-110.61110345 68.24466596 -110.60850709 63.22436751 -110.5945797 58.20398331 C-110.58196694 53.48102641 -110.583978 48.75829299 -110.59699059 44.03533936 C-110.59934844 42.30764565 -110.59665021 40.57993605 -110.58836746 38.85226059 C-110.52737965 25.13591175 -111.53395023 14.5762765 -121.16040039 4.06054688 C-127.16683395 -1.70358894 -133.97190848 -3.94855051 -142.21118164 -4.40820312 C-150.52757352 -4.12589279 -157.64928605 -0.60352934 -163.97290039 4.68554688 Z M-89.66040039 4.99804688 C-96.57702552 13.03628689 -99.29281876 20.86501438 -99.2335968 31.48971558 C-99.23742235 32.23270185 -99.2412479 32.97568812 -99.24518937 33.74118912 C-99.25543318 36.20822991 -99.25154378 38.67503419 -99.24755859 41.14208984 C-99.25190986 42.9201275 -99.25709438 44.69816327 -99.26304626 46.47619629 C-99.27640313 51.29031129 -99.27701861 56.10434762 -99.27448297 60.91847754 C-99.27341098 64.94417452 -99.27830247 68.96985573 -99.28308839 72.99554932 C-99.29417218 82.49655667 -99.29462736 91.99752448 -99.28857422 101.49853516 C-99.28253506 111.28470465 -99.2948466 121.07073034 -99.31614429 130.8568753 C-99.3337843 139.27326842 -99.33975785 147.68961586 -99.33650655 156.10602677 C-99.33469733 161.12642779 -99.33729369 166.14672624 -99.35122108 171.16711044 C-99.36383384 175.89006734 -99.36182278 180.61280076 -99.3488102 185.33575439 C-99.34645234 187.0634481 -99.34915057 188.7911577 -99.35743332 190.51883316 C-99.41952919 204.48438706 -98.35510766 215.00819147 -88.30883789 225.40820312 C-80.90077169 232.29195414 -73.55746064 233.310075 -63.67211914 233.10351562 C-55.73780508 232.2070303 -49.66145669 228.08238234 -43.97290039 222.68554688 C-43.64290039 222.02554688 -43.31290039 221.36554688 -42.97290039 220.68554688 C-40.78540039 220.22851562 -40.78540039 220.22851562 -37.97290039 219.87304688 C-29.12667154 218.37193809 -23.05554906 214.70480846 -17.41430664 207.72851562 C-13.75808582 202.54639235 -12.57902856 198.11878683 -12.97290039 191.68554688 C-12.35543945 191.55019531 -11.73797852 191.41484375 -11.10180664 191.27539062 C-0.76925641 188.64900419 6.47186831 182.74182427 12.02709961 173.68554688 C17.14732685 163.98723411 17.08771278 154.01511632 14.02709961 143.68554688 C14.8972168 143.01072266 14.8972168 143.01072266 15.78491211 142.32226562 C23.06925169 136.32410482 28.63231264 129.25408544 30.02709961 119.68554688 C31.02820129 109.00165848 28.27197337 100.81207179 21.62084961 92.44726562 C19.29190203 89.87286524 16.78694889 87.78828919 14.02709961 85.68554688 C14.52209961 84.01492187 14.52209961 84.01492187 15.02709961 82.31054688 C17.33663922 72.87300373 16.30648591 63.91740246 11.77319336 55.30273438 C6.17794094 46.30764194 -0.79821004 40.73038915 -10.97290039 37.68554688 C-11.63290039 37.68554688 -12.29290039 37.68554688 -12.97290039 37.68554688 C-12.86977539 36.73679688 -12.76665039 35.78804687 -12.66040039 34.81054688 C-12.71194045 28.43246435 -15.8765811 23.04490242 -20.02758789 18.37304688 C-25.84805184 12.89496316 -31.17209183 9.88166577 -39.16040039 9.37304688 C-43.44378621 8.60063304 -43.95675751 7.76297332 -46.38305664 4.38085938 C-51.61318577 -1.19623164 -60.09536153 -4.10374751 -67.60180664 -4.41601562 C-76.57381599 -4.03171209 -82.92017306 -0.80168362 -89.66040039 4.99804688 Z " fill="#2393D1" transform="translate(360.972900390625,142.314453125)"/>
<path d="M0 0 C4.92126374 2.36949736 7.35525683 5.27679753 10 10 C10.37775576 12.72144235 10.5423944 15.03076981 10.50793457 17.74243164 C10.51417453 18.50286553 10.5204145 19.26329943 10.52684355 20.04677677 C10.54274852 22.58488902 10.53017963 25.12203755 10.51757812 27.66015625 C10.52300037 29.48380085 10.5301236 31.30744107 10.53881836 33.131073 C10.55704245 38.07735321 10.54998792 43.02329942 10.53730202 47.96958542 C10.52716965 53.14778285 10.53656836 58.32595183 10.54284668 63.50415039 C10.55012238 72.19975922 10.54053737 80.89523212 10.52148438 89.59082031 C10.49971582 99.64178771 10.50676724 109.69243055 10.52879 119.74339008 C10.54694615 128.37540876 10.54950125 137.00732978 10.53903532 145.63936138 C10.53280159 150.79381823 10.53196149 155.94812255 10.54518127 161.10256958 C10.55674224 165.94868272 10.54870944 170.7943777 10.52560425 175.64044571 C10.52031849 177.41818676 10.52182867 179.19596304 10.53065491 180.97369003 C10.54159956 183.40212336 10.52786109 185.82922002 10.50793457 188.25756836 C10.51685746 188.95971498 10.52578034 189.66186159 10.53497362 190.38528538 C10.45596387 195.35536585 9.07169456 198.14876847 6 202 C1.6830516 205.79368193 -2.20307484 206.28104658 -7.76953125 206.2265625 C-10.7886096 205.91989605 -12.68860727 204.93858746 -15 203 C-15 199.71171788 -12.24814003 198.24814003 -10 196 C-6.94543084 191.9974611 -6.35016218 189.01303461 -7 184 C-8.44148975 181.81452316 -8.44148975 181.81452316 -11 181 C-14.47440615 180.60185364 -14.47440615 180.60185364 -18 182 C-19.79894668 183.91608739 -21.21523507 185.88369248 -22.640625 188.08984375 C-24 190 -24 190 -27 192 C-31.96861222 192.73545723 -35.96194685 192.50048991 -40.5 190.3125 C-44.20592951 186.8845152 -44.83480306 184.51430531 -45.375 179.5625 C-44.92869906 175.3226411 -43.58060269 173.33960348 -41 170 C-38.68717413 166.53076119 -38.57521414 165.07794425 -39 161 C-40.4183156 158.94344237 -41.58226201 158.20166661 -43.8125 157.125 C-47.2167463 156.93047164 -49.14539525 158.21587203 -52 160 C-54.34325664 162.55139853 -54.34325664 162.55139853 -56 165 C-61.87344757 165 -64.89324297 161.90466103 -69.046875 158.203125 C-73.50793587 153.17104833 -73.55490716 147.78018908 -73.4375 141.30078125 C-72.64318036 135.30792325 -69.86801946 131.34540258 -65.2421875 127.5625 C-59.63240442 124.18254702 -53.35338829 124.14238009 -47 125 C-40.87299216 126.98292254 -36.6938967 131.70135906 -33.8125 137.3125 C-33.07372581 139.75613771 -32.5984092 142.12038208 -32.125 144.625 C-31.50028128 147.50831718 -31.15455725 148.81232334 -29.25 151.125 C-26.11694996 152.34340835 -24.18408512 151.96906939 -21 151 C-17.99137489 146.48706234 -18.44454744 142.29068565 -19 137 C-21.30475462 128.06907585 -25.94175486 120.6686219 -33.75 115.6875 C-43.73139231 110.18724328 -52.51557122 108.57798391 -63.5 111.6875 C-68.96133541 113.4613214 -73.3203376 115.69670889 -78 119 C-83.31429703 115.15623447 -86.8317531 111.62420847 -88 105 C-88.12828471 100.04271236 -87.0803128 95.93005427 -84 92 C-82.06749618 90.21539188 -80.080643 88.61827789 -78 87 C-77.41734375 87.39832031 -76.8346875 87.79664063 -76.234375 88.20703125 C-67.07945477 94.12318253 -57.98277425 96.98682123 -47.03125 95.71875 C-41.55953453 94.42133293 -36.85804603 91.75825806 -32 89 C-31.2678125 88.68933594 -30.535625 88.37867188 -29.78125 88.05859375 C-27.49407836 86.69933166 -27.03552471 85.41919997 -26 83 C-25.1791697 81.70035203 -24.34550877 80.40872978 -23.5 79.125 C-19.28620938 72.33818679 -17.34788254 65.00641537 -19 57 C-21.71367995 54.85596857 -23.1472893 53.97969736 -26.625 54.0625 C-29.56258129 55.22207156 -30.33357921 56.34572866 -32 59 C-32.63603554 61.37389081 -32.63603554 61.37389081 -32.9375 63.875 C-33.97703146 69.66910979 -36.08679824 73.23396761 -40.4375 77.25 C-46.42689107 81.34031585 -51.92299069 81.63766258 -59 81 C-64.83497248 79.20462385 -68.47253184 74.81990139 -72 70 C-74.04021328 63.87936017 -74.09323014 56.50951962 -71.4375 50.5625 C-69.11594702 46.62488364 -66.08554455 44.02080698 -62 42 C-58.5625 41.1875 -58.5625 41.1875 -56 41 C-55.484375 41.763125 -54.96875 42.52625 -54.4375 43.3125 C-51.49617087 46.55550391 -49.18212935 47.75269826 -45 49 C-42.13930698 48.47458333 -42.13930698 48.47458333 -40 47 C-38.50409291 44.00818583 -38.57256989 42.3583794 -39 39 C-39.94683238 37.50659966 -40.95367623 36.05046227 -42 34.625 C-45.26056573 30.02775684 -45.91540353 27.58396153 -45 22 C-43.11918927 18.01268125 -41.54613476 16.34267279 -37.8125 14 C-32.99365431 12.73604047 -29.55221208 12.95107592 -25 15 C-22.88552764 16.83611145 -21.63598725 18.66287536 -20 21 C-18.26989612 23.48231727 -18.26989612 23.48231727 -16 25 C-12.37350049 25.08916154 -12.37350049 25.08916154 -9 24 C-6.58305671 20.37458506 -6.36516429 19.28514107 -7 15 C-8.76955965 11.82456321 -10.84890976 8.92570563 -13 6 C-13.99 4.515 -13.99 4.515 -15 3 C-10.36824892 -0.70540087 -5.67370382 -0.81052912 0 0 Z " fill="#1B9DD8" transform="translate(224,154)"/>
<path d="M0 0 C3.125 1.5 3.125 1.5 5 3 C4.59007812 3.53109375 4.18015625 4.0621875 3.7578125 4.609375 C3.21898437 5.31578125 2.68015625 6.0221875 2.125 6.75 C1.59132813 7.44609375 1.05765625 8.1421875 0.5078125 8.859375 C-2.38753826 12.96987297 -3.63921789 15.88625688 -3 21 C-1.58333333 23.58333333 -1.58333333 23.58333333 1 25 C4.47910224 25.48108188 4.47910224 25.48108188 8 24 C9.67781368 22.08371534 11.04572001 20.0574508 12.47265625 17.94921875 C14.9836433 14.74465983 17.0675928 14.034844 21 13 C26.30847307 13.0915254 29.24660045 14.24660045 33 18 C35.28472613 21.04630151 35.41223703 24.20864274 35.328125 27.97265625 C34.79488143 31.26733971 33.03345693 33.42827505 31 36 C28.68717413 39.46923881 28.57521414 40.92205575 29 45 C30.4183156 47.05655763 31.58226201 47.79833339 33.8125 48.875 C37.2167463 49.06952836 39.14539525 47.78412797 42 46 C44.34325664 43.44860147 44.34325664 43.44860147 46 41 C51.50138005 41.40254 55.09695795 43.219814 59 47 C63.09301357 52.18528405 63.63158233 57.634039 63.37890625 64.09765625 C62.70802906 69.2364372 61.14834524 73.04695888 57.28125 76.5625 C51.15757036 81.12931193 45.52794487 81.73116838 38 81 C32.05897808 79.25264061 28.47822726 76.01273929 25 71 C23.38489482 67.85479517 22.77583265 64.81829409 22.125 61.375 C21.50028128 58.49168282 21.15455725 57.18767666 19.25 54.875 C16.1450467 53.66751816 14.16867667 54.10450442 11 55 C8.41134893 57.58865107 8.6430304 58.76534315 8.5625 62.375 C8.70236518 71.30485377 11.61766699 78.78131656 18 85 C18 85.66 18 86.32 18 87 C18.57363281 87.2784375 19.14726562 87.556875 19.73828125 87.84375 C21.95195478 88.97543802 24.05384296 90.2252468 26.1875 91.5 C34.62851177 96.14668075 42.53955115 96.75567742 52 95 C55.18593917 93.95777804 58.06364541 92.60827055 61 91 C61.69609375 90.61972656 62.3921875 90.23945313 63.109375 89.84765625 C64.75388723 88.92344038 66.37937024 87.96548156 68 87 C72.07849388 90.12052206 75.40819307 92.69802476 77.5625 97.4375 C78.26083852 103.1239708 77.99067776 107.16016988 75.25 112.25 C73.03999506 114.95111715 70.82271818 116.9613702 68 119 C67.40574219 118.60167969 66.81148438 118.20335937 66.19921875 117.79296875 C57.10069198 111.97726968 47.50874947 108.31231415 36.63671875 110.46875 C27.65482136 112.81549769 19.49986971 116.94870359 14.25 124.80859375 C9.97310945 132.30651749 7.75265013 139.283055 9 148 C10.70976172 151.21262767 10.70976172 151.21262767 13.8125 152 C17.10535813 152.29235397 17.10535813 152.29235397 19.75 150.1875 C22.34887673 146.50575797 22.78387373 143.79875443 23.484375 139.43359375 C24.69093048 133.73901749 28.38519536 130.23036325 33 127 C37.99735467 123.97985957 43.34553573 124.42656909 49 125 C54.65130884 126.54462942 57.914149 129.48289119 61.08984375 134.31640625 C63.9010195 139.51647813 63.40378978 145.26313762 63 151 C61.08086183 157.09608594 56.3829256 161.10379775 50.90234375 164.17578125 C49 165 49 165 47 164.9375 C44.17371627 163.6126795 42.90243393 161.43749347 41 159 C38.53344505 157.24954165 37.46771945 156.96577663 34.4375 157.1875 C31.71800513 158.09399829 30.57172691 158.6010484 29 161 C28.46344902 164.01809927 28.33396357 166.01168788 30.08984375 168.6171875 C31.36490438 170.10291032 32.68141186 171.55276911 34 173 C35.57733174 177.73199521 35.52757348 181.55611468 33.8125 186.25 C31.6911324 189.4686267 30.60597575 190.61898801 27 192 C22.89649008 192.61758511 18.91319406 192.96855449 15.125 191.05078125 C12.62273714 189.06773793 11.03591466 187.06870631 9.5625 184.25 C8.09804505 181.63744491 8.09804505 181.63744491 4.5625 181 C1.11020972 180.77463841 1.11020972 180.77463841 -1.4375 182 C-3.24404114 184.00377305 -3.24404114 184.00377305 -3.625 187.125 C-2.78092028 192.35829424 -0.35436702 195.95042738 3 200 C3.66 200.33 4.32 200.66 5 201 C4 204 4 204 2.2109375 205.16796875 C-2.65157605 206.99785459 -7.49416407 206.53982798 -12.3125 204.8125 C-15.82770834 202.4417781 -18.10640381 199.78719238 -20 196 C-20.10405258 193.57029122 -20.14779872 191.16884223 -20.14717102 188.73858643 C-20.15084771 187.98157023 -20.1545244 187.22455404 -20.1583125 186.44459796 C-20.1693726 183.89437365 -20.17319711 181.34419005 -20.17700195 178.79394531 C-20.18326486 176.97089508 -20.1899115 175.14784613 -20.19691467 173.32479858 C-20.21434071 168.36186696 -20.22488085 163.39894498 -20.2331202 158.43599033 C-20.23826707 155.3366663 -20.24434295 152.23734528 -20.25063133 149.13802338 C-20.26968806 139.44494664 -20.28391805 129.75187755 -20.2922433 120.05878568 C-20.30201786 108.86243615 -20.3283411 97.66628421 -20.36874419 86.47000432 C-20.39888575 77.82110781 -20.41371032 69.17226799 -20.41702431 60.52331996 C-20.41937708 55.35535472 -20.42836694 50.18760046 -20.45348549 45.01969147 C-20.47673684 40.1572672 -20.48101126 35.29519323 -20.47072411 30.43272781 C-20.47022792 28.64852103 -20.47657282 26.86429717 -20.49028015 25.08014297 C-20.50795731 22.64279064 -20.50091427 20.20670115 -20.48774719 17.76934814 C-20.49871644 17.06447305 -20.50968568 16.35959795 -20.52098733 15.63336301 C-20.45598777 10.64433651 -19.09212955 7.85919147 -16 4 C-11.05518783 -0.47387768 -6.39725567 -0.92605864 0 0 Z " fill="#2B88C9" transform="translate(298,154)"/>
<path d="M0 0 C37.62 0 75.24 0 114 0 C114 9 114 9 112.12719727 11.53015137 C107.68714806 13.61706809 103.81724658 13.5590821 98.96484375 13.51757812 C97.95777374 13.5245874 96.95070374 13.53159668 95.91311646 13.53881836 C92.58762964 13.55640867 89.26299532 13.5447714 85.9375 13.53125 C83.62491696 13.5339446 81.31233502 13.53782676 78.99975586 13.54284668 C74.15434985 13.54874316 69.30923889 13.54017361 64.46386719 13.52148438 C58.25278741 13.49869516 52.04239901 13.51181738 45.8313446 13.53577423 C41.05638418 13.55022791 36.28158768 13.5456281 31.50662231 13.53526306 C29.21648069 13.53259461 26.92632419 13.53586967 24.63619995 13.54518127 C21.43545097 13.55533937 18.23582182 13.53985498 15.03515625 13.51757812 C14.08851105 13.52567505 13.14186584 13.53377197 12.16653442 13.54211426 C8.18710426 13.49080047 5.50972517 13.23958157 1.87280273 11.53015137 C0 9 0 9 0 0 Z " fill="#2393D1" transform="translate(199,464)"/>
<path d="M0 0 C25.08 0 50.16 0 76 0 C73 13 73 13 69 18 C65.93453639 19.0218212 63.80960315 19.13859859 60.59814453 19.16113281 C59.49334747 19.17074036 58.38855042 19.1803479 57.25027466 19.19024658 C56.05651215 19.19449646 54.86274963 19.19874634 53.6328125 19.203125 C52.40593719 19.20882507 51.17906189 19.21452515 49.91500854 19.22039795 C47.31753401 19.22985044 44.72004747 19.23638291 42.12255859 19.24023438 C38.14789951 19.24994406 34.17375653 19.28096778 30.19921875 19.3125 C27.67708641 19.31902961 25.15495036 19.32428025 22.6328125 19.328125 C21.44309845 19.3404718 20.2533844 19.3528186 19.02761841 19.36553955 C17.36096634 19.3610379 17.36096634 19.3610379 15.66064453 19.35644531 C14.68596222 19.36009094 13.71127991 19.36373657 12.70706177 19.36749268 C9.47987715 18.92939159 7.62062579 17.90625193 5 16 C1.54575978 10.75467226 1.31612956 6.5806478 0 0 Z " fill="#2393D1" transform="translate(218,493)"/>
<path d="M0 0 C1.2249971 -0.00960754 2.4499942 -0.01921509 3.71211243 -0.02911377 C5.05571304 -0.03396211 6.3993158 -0.03824085 7.74291992 -0.04199219 C9.11813865 -0.04774453 10.49335736 -0.05350226 11.86857605 -0.05926514 C14.75451023 -0.06977596 17.64041655 -0.07561777 20.52636719 -0.07910156 C24.21856257 -0.08458005 27.91038801 -0.10859342 31.60246754 -0.13707352 C34.44468752 -0.15573005 37.28681904 -0.16090713 40.12909508 -0.16243744 C41.48982448 -0.16545879 42.85055251 -0.17346992 44.21122169 -0.18662262 C46.11860443 -0.20374063 48.02613984 -0.19994974 49.93359375 -0.1953125 C51.01788162 -0.19895813 52.10216949 -0.20260376 53.21931458 -0.20635986 C56.57498004 0.2128655 58.45460959 1.16535435 61.16088867 3.16113281 C62.7570561 6.35346767 62.67554982 9.69574778 62.16088867 13.16113281 C60.29073773 15.59232904 58.87950522 16.80182454 56.16088867 18.16113281 C54.24732755 18.2676649 52.33005903 18.30996855 50.41357422 18.32226562 C49.20859787 18.33187317 48.00362152 18.34148071 46.76213074 18.35137939 C44.7996917 18.35775421 44.7996917 18.35775421 42.79760742 18.36425781 C41.44480894 18.37001027 40.09201048 18.37576799 38.73921204 18.38153076 C35.90035624 18.39204133 33.06152877 18.3978833 30.22265625 18.40136719 C26.5909923 18.40684542 22.95970452 18.43085832 19.32815838 18.45933914 C16.53226136 18.47799735 13.73645427 18.48317285 10.94050026 18.48470306 C8.95245142 18.48919045 6.96445076 18.50782378 4.97648621 18.52667236 C3.76205338 18.52367126 2.54762054 18.52067017 1.29638672 18.51757812 C-0.30339775 18.52304657 -0.30339775 18.52304657 -1.9355011 18.52862549 C-6.22440999 17.9858038 -8.82487185 16.17537229 -11.83911133 13.16113281 C-12.52679041 6.05511562 -12.52679041 6.05511562 -9.96411133 2.72363281 C-6.43175273 0.12631032 -4.36284958 0.02753445 0 0 Z " fill="#416AB3" transform="translate(449.839111328125,247.8388671875)"/>
<path d="M0 0 C1.22814926 -0.00637985 2.45629852 -0.0127597 3.72166443 -0.01933289 C5.06322185 -0.02086155 6.4047798 -0.02197552 7.74633789 -0.02270508 C9.12252334 -0.02591873 10.49870845 -0.02928288 11.87489319 -0.03279114 C14.75905143 -0.03877774 17.64317973 -0.0406315 20.52734375 -0.04003906 C24.22064726 -0.03993742 27.9137586 -0.05359352 31.60701656 -0.07081127 C34.4491921 -0.08193632 37.29132123 -0.08395812 40.13351631 -0.08342934 C41.49505844 -0.08460854 42.85660181 -0.089027 44.21812248 -0.0967617 C46.12325434 -0.10657194 48.02844258 -0.10241662 49.93359375 -0.09765625 C51.55883217 -0.09979378 51.55883217 -0.09979378 53.21690369 -0.10197449 C56.07140594 0.14876959 57.66825307 0.55658387 60.03149414 2.14526367 C62.47944156 5.8171848 62.74585301 8.87632395 62.03149414 13.14526367 C59.82408733 16.11384524 58.54552041 16.97392158 55.03149414 18.14526367 C53.07989614 18.24896971 51.12496538 18.29383047 49.1706543 18.30639648 C47.96575348 18.31600403 46.76085266 18.32561157 45.5194397 18.33551025 C44.21630829 18.33976013 42.91317688 18.34401001 41.57055664 18.34838867 C40.2191874 18.35414298 38.86781818 18.35990068 37.51644897 18.36566162 C34.68356954 18.37616131 31.85071841 18.38201075 29.01782227 18.38549805 C25.39403412 18.3909814 21.77062196 18.41500989 18.14695168 18.44347 C15.35534585 18.46212557 12.56383009 18.46730351 9.77216721 18.46883392 C7.78854776 18.47331972 5.80497658 18.49195122 3.82144165 18.51080322 C2.61023651 18.50780212 1.39903137 18.50480103 0.15112305 18.50170898 C-0.91238373 18.50535461 -1.9758905 18.50900024 -3.07162476 18.51275635 C-6.4001768 18.09050274 -8.28033918 17.12156573 -10.96850586 15.14526367 C-12.56102229 11.9602308 -12.35980347 8.61202317 -11.96850586 5.14526367 C-9.16643667 -0.05857911 -5.49907171 0.01936032 0 0 Z " fill="#05BBEE" transform="translate(11.968505859375,247.854736328125)"/>
<path d="M0 0 C2.43119623 1.87015094 3.64069173 3.28138345 5 6 C5.11682364 7.93862835 5.16972218 9.88123504 5.19287109 11.82324219 C5.21696548 13.6558963 5.21696548 13.6558963 5.24154663 15.52557373 C5.253035 16.86600041 5.26364339 18.20643487 5.2734375 19.546875 C5.27876118 20.22157082 5.28408485 20.89626663 5.28956985 21.59140778 C5.31629844 25.16444258 5.33567186 28.73744253 5.35009766 32.31054688 C5.36342413 35.26333689 5.39125092 38.21543369 5.43212891 41.16796875 C5.48153418 44.73652229 5.50622829 48.30444823 5.51332474 51.87332916 C5.52327313 53.88857948 5.55749981 55.90366287 5.59213257 57.91864014 C5.56856403 68.12639771 5.56856403 68.12639771 2.59619141 71.83007812 C-0.98461747 74.8229528 -0.98461747 74.8229528 -4 74.75 C-4.9590625 74.77320312 -4.9590625 74.77320312 -5.9375 74.796875 C-9.44484826 73.44176317 -11.36396962 71.28402789 -13 68 C-13.73627673 63.34393971 -13.65265827 58.73246123 -13.59375 54.02734375 C-13.59203697 52.65784307 -13.59210654 51.28833911 -13.59387207 49.9188385 C-13.59222316 47.05649199 -13.5736045 44.1949328 -13.54199219 41.33276367 C-13.5022771 37.67194886 -13.4979537 34.01216188 -13.50545502 30.35117245 C-13.50853044 27.52603308 -13.49638472 24.70112293 -13.47932434 21.87603951 C-13.46891979 19.87253764 -13.46844733 17.86899212 -13.46813965 15.86546326 C-13.44427185 14.03314903 -13.44427185 14.03314903 -13.41992188 12.16381836 C-13.41150269 11.09159531 -13.4030835 10.01937225 -13.39440918 8.91465759 C-12.9446162 5.59071738 -11.97463379 3.68915134 -10 1 C-6.80766515 -0.59616743 -3.46538503 -0.51466114 0 0 Z " fill="#2393D0" transform="translate(260,1)"/>
<path d="M0 0 C8.24278196 1.67649802 14.7461884 10.66057671 20.52734375 16.45703125 C21.33490616 17.26363693 22.14246857 18.07024261 22.97450256 18.90129089 C24.66562645 20.59173886 26.35550656 22.28343195 28.04418945 23.97631836 C30.63834702 26.5758748 33.23785425 29.16999675 35.83789062 31.76367188 C37.48469611 33.41113742 39.13119176 35.05891274 40.77734375 36.70703125 C41.55641586 37.48407913 42.33548798 38.26112701 43.13816833 39.0617218 C44.21047447 40.13875618 44.21047447 40.13875618 45.30444336 41.23754883 C45.93539413 41.8692952 46.56634491 42.50104156 47.21641541 43.15193176 C49.25184654 45.36306079 49.66422774 46.54054962 50 49.5625 C49.60395896 53.60211856 48.69908942 55.04729155 45.6875 57.75 C41.91013094 58.848871 39.79174637 59.3106752 36.23455811 57.50453186 C33.66641703 55.73547707 31.57338347 53.88319534 29.37207031 51.67749023 C28.14620209 50.45623695 28.14620209 50.45623695 26.89556885 49.21031189 C26.02768738 48.3352449 25.15980591 47.46017792 24.265625 46.55859375 C22.91473785 45.20701927 22.91473785 45.20701927 21.53656006 43.82814026 C19.63800295 41.92656666 17.74145426 40.02322954 15.84814453 38.11645508 C13.41985881 35.6711198 10.98498147 33.23247976 8.54777908 30.79603481 C6.22175983 28.46967874 3.89999925 26.13908579 1.578125 23.80859375 C0.70214661 22.93150253 -0.17383179 22.05441132 -1.07635498 21.15074158 C-2.28331024 19.93421654 -2.28331024 19.93421654 -3.51464844 18.69311523 C-4.2257074 17.97824448 -4.93676636 17.26337372 -5.66937256 16.52684021 C-7.98956436 14.01783818 -8.29423428 12.91134721 -8.6875 9.4375 C-8.3125 5.75 -8.3125 5.75 -6.25 2.8125 C-3.3125 0.75 -3.3125 0.75 0 0 Z " fill="#3876BC" transform="translate(390.3125,382.25)"/>
<path d="M0 0 C3.57632467 2.51103647 4.78325846 4.04272488 5.75 8.3125 C4.97838826 12.10625772 4.47089656 12.94606655 1.98413086 15.67797852 C1.34837128 16.37851349 0.71261169 17.07904846 0.05758667 17.80081177 C-5.82439449 24.08758644 -11.84565121 30.23291245 -17.89672852 36.35668945 C-19.59597518 38.0827139 -21.28801576 39.81586125 -22.97290039 41.5559082 C-25.4222573 44.0842536 -27.89373729 46.58896396 -30.37109375 49.08984375 C-31.11717392 49.86891586 -31.86325409 50.64798798 -32.63194275 51.45066833 C-38.56030728 57.35673468 -38.56030728 57.35673468 -43.35571289 58.10766602 C-47.67235069 57.98013622 -49.07549795 57.1017446 -52 54 C-53.50889469 50.98221063 -53.50026276 49.37677363 -53 46 C-48.55256224 39.82506578 -42.66690203 34.51990554 -37.29296875 29.16015625 C-36.08306023 27.94881264 -36.08306023 27.94881264 -34.84870911 26.71299744 C-33.15826114 25.02187355 -31.46656805 23.33199344 -29.77368164 21.64331055 C-27.1741252 19.04915298 -24.58000325 16.44964575 -21.98632812 13.84960938 C-20.33886258 12.20280389 -18.69108726 10.55630824 -17.04296875 8.91015625 C-16.26592087 8.13108414 -15.48887299 7.35201202 -14.6882782 6.54933167 C-13.61124382 5.47702553 -13.61124382 5.47702553 -12.51245117 4.38305664 C-11.8807048 3.75210587 -11.24895844 3.12115509 -10.59806824 2.47108459 C-7.28075903 -0.58262886 -4.3942364 -0.4468715 0 0 Z " fill="#0DAFE5" transform="translate(125,383)"/>
<path d="M0 0 C2.58971247 0.86323749 3.66500737 1.53101032 5.25 3.75 C6.30656709 6.91970128 6.57948447 8.65186752 6 12 C1.51189216 18.15889026 -4.32490458 23.4719227 -9.70703125 28.83984375 C-10.51363693 29.64740616 -11.32024261 30.45496857 -12.15129089 31.28700256 C-13.84173886 32.97812645 -15.53343195 34.66800656 -17.22631836 36.35668945 C-19.8258748 38.95084702 -22.41999675 41.55035425 -25.01367188 44.15039062 C-26.66113742 45.79719611 -28.30891274 47.44369176 -29.95703125 49.08984375 C-30.73407913 49.86891586 -31.51112701 50.64798798 -32.3117218 51.45066833 C-33.02974472 52.16553909 -33.74776764 52.88040985 -34.48754883 53.61694336 C-35.1192952 54.24789413 -35.75104156 54.87884491 -36.40193176 55.52891541 C-38.67090338 57.61759292 -39.75201386 57.98382699 -42.875 58.1875 C-45.96075154 58.00235491 -47.51023567 57.77840309 -50 56 C-51.59177021 53.7715217 -52.01314313 51.93574472 -52.5625 49.25 C-51.19823075 41.36755544 -41.786251 34.63893949 -36.29296875 29.16015625 C-35.08306023 27.94881264 -35.08306023 27.94881264 -33.84870911 26.71299744 C-32.15826114 25.02187355 -30.46656805 23.33199344 -28.77368164 21.64331055 C-26.1741252 19.04915298 -23.58000325 16.44964575 -20.98632812 13.84960938 C-19.33886258 12.20280389 -17.69108726 10.55630824 -16.04296875 8.91015625 C-15.26592087 8.13108414 -14.48887299 7.35201202 -13.6882782 6.54933167 C-12.61124382 5.47702553 -12.61124382 5.47702553 -11.51245117 4.38305664 C-10.8807048 3.75210587 -10.24895844 3.12115509 -9.59806824 2.47108459 C-6.51592438 -0.36614992 -4.09012221 -0.24540733 0 0 Z " fill="#3976BC" transform="translate(434,73)"/>
<path d="M0 0 C6.15889026 4.48810784 11.4719227 10.32490458 16.83984375 15.70703125 C17.64740616 16.51363693 18.45496857 17.32024261 19.28700256 18.15129089 C20.97812645 19.84173886 22.66800656 21.53343195 24.35668945 23.22631836 C26.95084702 25.8258748 29.55035425 28.41999675 32.15039062 31.01367188 C33.79719611 32.66113742 35.44369176 34.30891274 37.08984375 35.95703125 C37.86891586 36.73407913 38.64798798 37.51112701 39.45066833 38.3117218 C40.52297447 39.38875618 40.52297447 39.38875618 41.61694336 40.48754883 C42.24789413 41.1192952 42.87884491 41.75104156 43.52891541 42.40193176 C45.61759292 44.67090338 45.98382699 45.75201386 46.1875 48.875 C46.00235491 51.96075154 45.77840309 53.51023567 44 56 C41.7715217 57.59177021 39.93574472 58.01314313 37.25 58.5625 C29.36755544 57.19823075 22.63893949 47.786251 17.16015625 42.29296875 C16.35259384 41.48636307 15.54503143 40.67975739 14.71299744 39.84870911 C13.02187355 38.15826114 11.33199344 36.46656805 9.64331055 34.77368164 C7.04915298 32.1741252 4.44964575 29.58000325 1.84960938 26.98632812 C0.20280389 25.33886258 -1.44369176 23.69108726 -3.08984375 22.04296875 C-3.86891586 21.26592087 -4.64798798 20.48887299 -5.45066833 19.6882782 C-6.16553909 18.97025528 -6.88040985 18.25223236 -7.61694336 17.51245117 C-8.24789413 16.8807048 -8.87884491 16.24895844 -9.52891541 15.59806824 C-11.61759292 13.32909662 -11.98382699 12.24798614 -12.1875 9.125 C-12.00235491 6.03924846 -11.77840309 4.48976433 -10 2 C-6.74404505 -0.32568211 -3.90762208 -0.67631921 0 0 Z " fill="#0DAFE5" transform="translate(84,73)"/>
<path d="M0 0 C37.62 0 75.24 0 114 0 C114 3.63 114 7.26 114 11 C76.38 11 38.76 11 0 11 C0 7.37 0 3.74 0 0 Z " fill="#2392D1" transform="translate(199,438)"/>
</svg>
